# xmcd
#
# Track frame offsets:
# 150
# 13727
# 27175
# 38252
# 50427
# 68597
# 86520
# 104305
# 122060
# 131960
# 149292
#
# Disc length: 2242 seconds
#
#
# Revision: 0
# Processed by: cddbd v1.5.1PL2 Copyright (c) Steve Scherf et al.
# Submitted via: FreeRIP 2.944 
#
DISCID=8c08c00b
DTITLE=Mr. Chill (Kelly Hoppe) - Mt. Chill's Cold Testament
DYEAR=2005
DGENRE=Bluegrass
TTITLE0=Ocean
TTITLE1=The Girl I Love
TTITLE2=Ugly Way to Lose
TTITLE3=Weeping Willows
TTITLE4=Tired All the Time
TTITLE5=Tolling Thunder
TTITLE6=Religion of My Own
TTITLE7=Do not Go quietly unto Your Grave
TTITLE8=Hope Out on that Stage
TTITLE9=Mis Me when I'm Gone
TTITLE10=Riding wtih Delilah
EXTD=Windsor Boys
EXTT0=
EXTT1=
EXTT2=
EXTT3=
EXTT4=
EXTT5=
EXTT6=
EXTT7=
EXTT8=
EXTT9=
EXTT10=
PLAYORDER=
